21:[Parsed_showinfo_1 @ 0xc6cc65b00] n:   0 pts:    920 pts_time:1.533333 duration:     10 duration_time:0.0166667 fmt:yuv420p cl:left sar:0/1 s:2124x1202 i:P iskey:0 type:B checksum:D63AD10C plane_checksum:[83DA1D9E 01FF296C 99088A02] mean:[150 129 131] stdev:[55.1 18.1 15.4]
37:[Parsed_showinfo_1 @ 0xc6cc65b00] n:   1 pts:    940 pts_time:1.566667 duration:     10 duration_time:0.0166667 fmt:yuv420p cl:left sar:0/1 s:2124x1202 i:P iskey:0 type:P checksum:E44BB4D5 plane_checksum:[D3129B37 B62D6261 F52BB72E] mean:[151 129 131] stdev:[58.7 19.1 16.2]
39:[Parsed_showinfo_1 @ 0xc6cc65b00] n:   2 pts:    960 pts_time:1.6     duration:     15 duration_time:0.025   fmt:yuv420p cl:left sar:0/1 s:2124x1202 i:P iskey:0 type:B checksum:DFECDC0F plane_checksum:[29D71347 018040AD 731D881B] mean:[152 129 131] stdev:[59.8 19.3 16.5]
41:[Parsed_showinfo_1 @ 0xc6cc65b00] n:   3 pts:   1005 pts_time:1.675   duration:     10 duration_time:0.0166667 fmt:yuv420p cl:left sar:0/1 s:2124x1202 i:P iskey:0 type:P checksum:0502D98F plane_checksum:[EB1EEF03 27482CB8 095EBDC5] mean:[152 129 131] stdev:[61.0 19.4 16.6]
43:[Parsed_showinfo_1 @ 0xc6cc65b00] n:   4 pts:   1085 pts_time:1.808333 duration:     10 duration_time:0.0166667 fmt:yuv420p cl:left sar:0/1 s:2124x1202 i:P iskey:0 type:B checksum:0B5E8E81 plane_checksum:[1F560BE9 7E09DEDB E026A3AE] mean:[152 129 132] stdev:[62.1 19.5 16.7]
45:[Parsed_showinfo_1 @ 0xc6cc65b00] n:   5 pts:   1125 pts_time:1.875   duration:     20 duration_time:0.0333333 fmt:yuv420p cl:left sar:0/1 s:2124x1202 i:P iskey:0 type:P checksum:214AADF2 plane_checksum:[BE461D22 A84FC65D 4109CA64] mean:[152 129 132] stdev:[62.2 19.6 16.8]
47:[Parsed_showinfo_1 @ 0xc6cc65b00] n:   6 pts:   1205 pts_time:2.008333 duration:     20 duration_time:0.0333333 fmt:yuv420p cl:left sar:0/1 s:2124x1202 i:P iskey:0 type:B checksum:2DF0647F plane_checksum:[D4AC7F40 E6197AD3 35EF6A5D] mean:[153 129 132] stdev:[62.3 19.5 16.7]
49:[Parsed_showinfo_1 @ 0xc6cc65b00] n:   7 pts:   1785 pts_time:2.975   duration:     25 duration_time:0.0416667 fmt:yuv420p cl:left sar:0/1 s:2124x1202 i:P iskey:0 type:P checksum:F4BF5AEE plane_checksum:[0E21B57F 827006B2 764E9EAE] mean:[34 125 131] stdev:[33.4 6.5 6.5]
51:[Parsed_showinfo_1 @ 0xc6cc65b00] n:   8 pts:   2980 pts_time:4.966667 duration:     15 duration_time:0.025   fmt:yuv420p cl:left sar:0/1 s:2124x1202 i:P iskey:1 type:I checksum:74B0112B plane_checksum:[FD015F9F 45BC4C5A CAFD6523] mean:[109 118 138] stdev:[56.5 10.2 14.4]
56:[Parsed_showinfo_1 @ 0xc6cc65b00] n:   9 pts:   2995 pts_time:4.991667 duration:     15 duration_time:0.025   fmt:yuv420p cl:left sar:0/1 s:2124x1202 i:P iskey:0 type:B checksum:19D5BB37 plane_checksum:[655B5F49 7E29D896 66218349] mean:[111 118 139] stdev:[56.1 10.2 14.4]
58:[Parsed_showinfo_1 @ 0xc6cc65b00] n:  10 pts:   3795 pts_time:6.325   duration:     15 duration_time:0.025   fmt:yuv420p cl:left sar:0/1 s:2124x1202 i:P iskey:0 type:B checksum:73BC37BF plane_checksum:[7AF62ACF 5CF80357 30B00999] mean:[88 120 133] stdev:[46.1 11.4 12.6]
60:[Parsed_showinfo_1 @ 0xc6cc65b00] n:  11 pts:   5055 pts_time:8.425   duration:     10 duration_time:0.0166667 fmt:yuv420p cl:left sar:0/1 s:2124x1202 i:P iskey:0 type:B checksum:10F2007E plane_checksum:[6188DA10 F51C0B45 6C9A1B1A] mean:[34 125 131] stdev:[34.2 6.5 6.5]
62:frame=   12 fps=0.0 q=-0.0 size=N/A time=00:00:08.44 bitrate=N/A speed=16.9x elapsed=0:00:00.50    [Parsed_showinfo_1 @ 0xc6cc65b00] n:  12 pts:   5410 pts_time:9.016667 duration:     15 duration_time:0.025   fmt:yuv420p cl:left sar:0/1 s:2124x1202 i:P iskey:0 type:B checksum:ADC00472 plane_checksum:[E58CECAC 1574FBE7 3F741BC1] mean:[119 128 128] stdev:[62.3 0.3 0.2]
64:[Parsed_showinfo_1 @ 0xc6cc65b00] n:  13 pts:   6305 pts_time:10.508333 duration:     10 duration_time:0.0166667 fmt:yuv420p cl:left sar:0/1 s:2124x1202 i:P iskey:0 type:P checksum:C024B275 plane_checksum:[FC107206 A6F8177F DB3928F0] mean:[67 126 130] stdev:[42.0 10.5 9.2]
66:[Parsed_showinfo_1 @ 0xc6cc65b00] n:  14 pts:   7355 pts_time:12.258333 duration:     15 duration_time:0.025   fmt:yuv420p cl:left sar:0/1 s:2124x1202 i:P iskey:0 type:B checksum:E4C2CA7B plane_checksum:[1ADA5454 A1CD1092 8A8A6595] mean:[62 141 121] stdev:[58.4 25.5 17.6]
68:frame=   15 fps= 15 q=-0.0 size=N/A time=00:00:12.28 bitrate=N/A speed=12.2x elapsed=0:00:01.00    [Parsed_showinfo_1 @ 0xc6cc65b00] n:  15 pts:  13110 pts_time:21.85   duration:     15 duration_time:0.025   fmt:yuv420p cl:left sar:0/1 s:2124x1202 i:P iskey:0 type:B checksum:71221693 plane_checksum:[48447CC3 DF28435C B9085665] mean:[70 137 125] stdev:[69.2 27.4 13.1]
